<svg viewBox="0 0 25 24" fill="none" xmlns="http://www.w3.org/2000/svg">
	<g opacity="0.4">
		<path
			d="M6.79844 14.3984C6.79844 13.9014 7.20138 13.4984 7.69844 13.4984H7.71044C8.20749 13.4984 8.61044 13.9014 8.61044 14.3984V14.4104C8.61044 14.9075 8.20749 15.3104 7.71044 15.3104H7.69844C7.20138 15.3104 6.79844 14.9075 6.79844 14.4104V14.3984Z"
			fill="white" />
		<path
			d="M7.69844 15.8984C7.20138 15.8984 6.79844 16.3014 6.79844 16.7984V16.8104C6.79844 17.3075 7.20138 17.7104 7.69844 17.7104H7.71044C8.20749 17.7104 8.61044 17.3075 8.61044 16.8104V16.7984C8.61044 16.3014 8.20749 15.8984 7.71044 15.8984H7.69844Z"
			fill="white" />
		<path
			d="M9.19844 14.3984C9.19844 13.9014 9.60138 13.4984 10.0984 13.4984H10.1104C10.6075 13.4984 11.0104 13.9014 11.0104 14.3984V14.4104C11.0104 14.9075 10.6075 15.3104 10.1104 15.3104H10.0984C9.60138 15.3104 9.19844 14.9075 9.19844 14.4104V14.3984Z"
			fill="white" />
		<path
			d="M10.0984 15.8984C9.60138 15.8984 9.19844 16.3014 9.19844 16.7984V16.8104C9.19844 17.3075 9.60138 17.7104 10.0984 17.7104H10.1104C10.6075 17.7104 11.0104 17.3075 11.0104 16.8104V16.7984C11.0104 16.3014 10.6075 15.8984 10.1104 15.8984H10.0984Z"
			fill="white" />
		<path
			d="M11.5984 11.9984C11.5984 11.5014 12.0014 11.0984 12.4984 11.0984H12.5104C13.0075 11.0984 13.4104 11.5014 13.4104 11.9984V12.0104C13.4104 12.5075 13.0075 12.9104 12.5104 12.9104H12.4984C12.0014 12.9104 11.5984 12.5075 11.5984 12.0104V11.9984Z"
			fill="white" />
		<path
			d="M12.4984 13.4984C12.0014 13.4984 11.5984 13.9014 11.5984 14.3984V14.4104C11.5984 14.9075 12.0014 15.3104 12.4984 15.3104H12.5104C13.0075 15.3104 13.4104 14.9075 13.4104 14.4104V14.3984C13.4104 13.9014 13.0075 13.4984 12.5104 13.4984H12.4984Z"
			fill="white" />
		<path
			d="M11.5984 16.7984C11.5984 16.3014 12.0014 15.8984 12.4984 15.8984H12.5104C13.0075 15.8984 13.4104 16.3014 13.4104 16.7984V16.8104C13.4104 17.3075 13.0075 17.7104 12.5104 17.7104H12.4984C12.0014 17.7104 11.5984 17.3075 11.5984 16.8104V16.7984Z"
			fill="white" />
		<path
			d="M14.8984 11.0984C14.4014 11.0984 13.9984 11.5014 13.9984 11.9984V12.0104C13.9984 12.5075 14.4014 12.9104 14.8984 12.9104H14.9104C15.4075 12.9104 15.8104 12.5075 15.8104 12.0104V11.9984C15.8104 11.5014 15.4075 11.0984 14.9104 11.0984H14.8984Z"
			fill="white" />
		<path
			d="M13.9984 14.3984C13.9984 13.9014 14.4014 13.4984 14.8984 13.4984H14.9104C15.4075 13.4984 15.8104 13.9014 15.8104 14.3984V14.4104C15.8104 14.9075 15.4075 15.3104 14.9104 15.3104H14.8984C14.4014 15.3104 13.9984 14.9075 13.9984 14.4104V14.3984Z"
			fill="white" />
		<path
			d="M14.8984 15.8984C14.4014 15.8984 13.9984 16.3014 13.9984 16.7984V16.8104C13.9984 17.3075 14.4014 17.7104 14.8984 17.7104H14.9104C15.4075 17.7104 15.8104 17.3075 15.8104 16.8104V16.7984C15.8104 16.3014 15.4075 15.8984 14.9104 15.8984H14.8984Z"
			fill="white" />
		<path
			d="M16.3984 11.9984C16.3984 11.5014 16.8014 11.0984 17.2984 11.0984H17.3104C17.8075 11.0984 18.2104 11.5014 18.2104 11.9984V12.0104C18.2104 12.5075 17.8075 12.9104 17.3104 12.9104H17.2984C16.8014 12.9104 16.3984 12.5075 16.3984 12.0104V11.9984Z"
			fill="white" />
		<path
			d="M17.2984 13.4984C16.8014 13.4984 16.3984 13.9014 16.3984 14.3984V14.4104C16.3984 14.9075 16.8014 15.3104 17.2984 15.3104H17.3104C17.8075 15.3104 18.2104 14.9075 18.2104 14.4104V14.3984C18.2104 13.9014 17.8075 13.4984 17.3104 13.4984H17.2984Z"
			fill="white" />
		<path fillRule="evenodd" clipRule="evenodd"
			d="M7.39844 2.39844C7.89549 2.39844 8.29844 2.80138 8.29844 3.29844V4.79844H16.6984V3.29844C16.6984 2.80138 17.1014 2.39844 17.5984 2.39844C18.0955 2.39844 18.4984 2.80138 18.4984 3.29844V4.79844H18.7984C20.621 4.79844 22.0984 6.2759 22.0984 8.09844V18.2984C22.0984 20.121 20.621 21.5984 18.7984 21.5984H6.19844C4.3759 21.5984 2.89844 20.121 2.89844 18.2984V8.09844C2.89844 6.2759 4.3759 4.79844 6.19844 4.79844H6.49844V3.29844C6.49844 2.80138 6.90138 2.39844 7.39844 2.39844ZM6.19844 8.99844C5.37001 8.99844 4.69844 9.67001 4.69844 10.4984V18.2984C4.69844 19.1269 5.37001 19.7984 6.19844 19.7984H18.7984C19.6269 19.7984 20.2984 19.1269 20.2984 18.2984V10.4984C20.2984 9.67001 19.6269 8.99844 18.7984 8.99844H6.19844Z"
			fill="white" />
	</g>
</svg>