<?xml version="1.0" encoding="utf-8"?>
<svg xmlns="http://www.w3.org/2000/svg" fill="none" height="67" viewBox="0 0 134 67" width="134">
<path clip-rule="evenodd" d="M120.143 3.7585C120.471 3.75333 120.798 3.74817 121.134 3.76991C121.18 3.77254 121.202 3.7962 121.202 3.84088C121.186 13.6371 121.177 23.9817 121.175 34.8748C121.175 34.9362 121.175 34.999 121.176 35.0629C121.18 35.7431 121.185 36.5452 120.731 37.0354C120.443 37.3473 120.134 37.6671 119.805 37.9948C119.417 38.3798 119.491 39.4062 119.542 40.0371C119.546 40.0809 119.564 40.1172 119.599 40.1461C119.769 40.2907 119.969 40.363 120.196 40.363H128.268C128.399 40.363 128.524 40.3122 128.617 40.2213C128.71 40.1304 128.764 40.0068 128.767 39.8767C128.778 39.4159 128.773 38.9664 128.754 38.5283C128.733 38.0392 128.416 37.7906 128.091 37.5365C127.894 37.3817 127.693 37.2249 127.556 37.0104C127.254 36.5364 127.103 36.0979 127.102 35.6949C127.1 25.1908 127.1 14.6862 127.102 4.18126C127.102 4.14184 127.1 4.10241 127.098 4.06298C127.087 3.88425 127.163 3.78656 127.326 3.76991C127.908 3.70946 128.498 3.74012 129.096 3.86191C129.789 4.00384 130.073 4.45068 130.313 5.10121C130.705 6.16211 130.897 7.1697 131.132 8.40105L131.132 8.40118L131.187 8.68771C131.257 9.04956 131.477 9.24188 131.848 9.26466C132.218 9.28656 132.62 9.28919 133.052 9.27254C133.649 9.24757 133.688 8.73765 133.688 8.28162C133.69 5.8731 133.688 3.40018 133.684 0.862863C133.683 0.526423 133.336 0.237296 133.013 0.251753C132.616 0.269276 132.224 0.320968 131.836 0.40683C131.764 0.422601 131.696 0.409897 131.631 0.368718C131.591 0.342434 131.549 0.340243 131.506 0.362147C131.175 0.527738 130.832 0.591696 130.478 0.554022C130.435 0.549641 130.393 0.556213 130.353 0.573736C130.072 0.697272 129.786 0.760355 129.495 0.762983C127.265 0.783135 124.356 0.785324 120.768 0.769554C119.787 0.765477 118.825 0.624842 117.862 0.484134C117.272 0.398026 116.683 0.311891 116.089 0.257009C115.772 0.228096 115.276 0.189984 115.033 0.385803C114.716 0.639641 114.72 1.18802 114.723 1.59064L114.723 1.59209L114.723 1.59621C114.724 1.63352 114.724 1.66956 114.724 1.70396C114.73 3.90046 114.73 6.11053 114.723 8.33419C114.722 8.5322 114.765 8.72407 114.851 8.90982C114.957 9.13411 115.152 9.25151 115.435 9.26203C115.886 9.2778 116.304 9.28393 116.689 9.28043C116.885 9.27911 117.119 9.19894 117.15 8.9821C117.365 7.52945 117.6 6.40185 117.857 5.5993C118.189 4.55713 118.793 3.7778 119.997 3.76071L120.143 3.7585ZM45.8007 3.74814C45.7718 3.74814 45.7574 3.7626 45.7574 3.79151C45.7539 14.4104 45.7539 25.0845 45.7574 35.8137C45.7574 36.4748 46.0437 37.0675 46.581 37.4736C46.9777 37.7719 47.331 38.0387 47.3429 38.5894C47.3516 39.002 47.3525 39.4151 47.3455 39.8287C47.3431 39.971 47.2849 40.1067 47.1834 40.2065C47.0819 40.3063 46.9453 40.3623 46.803 40.3622L38.6011 40.3636C38.4796 40.3636 38.363 40.3159 38.2764 40.2308C38.1899 40.1457 38.1404 40.03 38.1387 39.9088C38.1317 39.4147 38.1339 38.9573 38.1453 38.5368C38.1565 38.0958 38.5069 37.8062 38.8508 37.5218C39.0286 37.3748 39.2047 37.2292 39.3314 37.0649C39.6335 36.6724 39.7842 36.144 39.7833 35.4799C39.7719 24.911 39.7737 15.0066 39.7886 5.76678C39.7894 5.1342 39.7789 4.49988 39.757 3.8638C39.7544 3.79283 39.7176 3.75691 39.6467 3.75603C39.2482 3.74902 38.859 3.75428 38.4789 3.7718C37.3046 3.82568 36.6596 4.73118 36.3798 5.78255C36.1294 6.7209 35.9275 7.73723 35.7743 8.83154C35.727 9.16666 35.4485 9.27443 35.153 9.27837C34.7204 9.28626 34.3254 9.27881 33.9681 9.25603C33.624 9.235 33.3416 8.99319 33.3416 8.6436C33.3512 6.07212 33.3516 3.53568 33.3429 1.03429C33.3416 0.587451 33.5531 0.228669 34.0575 0.237869C34.7615 0.252763 35.5015 0.325484 36.2774 0.456029C36.8991 0.561167 37.5297 0.643524 38.1689 0.703102C38.7416 0.757423 39.3454 0.782831 39.9803 0.779327C42.4709 0.765308 44.9242 0.765308 47.3402 0.779327C47.8359 0.782831 48.3092 0.742529 48.7602 0.658419C49.7401 0.476181 50.6692 0.339502 51.5476 0.248383C51.9732 0.203699 52.2267 0.482313 52.2267 0.881835C52.2223 3.39199 52.2228 5.97662 52.228 8.63572C52.2282 8.72011 52.2117 8.80371 52.1795 8.88175C52.1473 8.95979 52.1001 9.03073 52.0404 9.09053C51.9808 9.15033 51.9099 9.19781 51.8319 9.23026C51.7539 9.26272 51.6702 9.27951 51.5857 9.27969C51.2039 9.27969 50.8308 9.27881 50.4665 9.27706C50.0681 9.2753 49.8321 9.06678 49.7585 8.65149C49.6018 7.76921 49.4117 6.8992 49.1884 6.04145C48.8876 4.88888 48.5303 3.85197 47.1866 3.77574C46.7399 3.75033 46.278 3.74114 45.8007 3.74814ZM106.966 1.06873C107.328 1.23519 107.696 1.40254 108.071 1.57076C108.315 1.67984 108.625 1.57601 108.831 1.44591C109.253 1.17847 110.075 1.2234 110.663 1.25555C110.722 1.25879 110.779 1.2619 110.833 1.26454C111.162 1.28031 111.327 1.45291 111.327 1.78235C111.332 4.56673 111.331 7.48868 111.322 10.5482C111.321 11.0454 110.908 11.0478 110.541 11.05L110.51 11.0502C110.032 11.0546 109.614 11.0349 109.257 10.9911C109.214 10.9858 109.174 10.9701 109.139 10.9456C109.104 10.9211 109.076 10.8884 109.057 10.8504C108.929 10.5972 108.839 10.3453 108.787 10.0948C108.437 8.41257 108.081 6.77374 107.276 5.31628C106.996 4.80986 106.603 4.33937 106.096 3.90481C105.997 3.81885 105.895 3.77766 105.793 3.73623C105.712 3.70356 105.631 3.67073 105.55 3.61568C105.477 3.56661 105.398 3.53288 105.311 3.51448C104.131 3.27442 103.197 3.5745 102.509 4.41472C101.671 5.43543 101.321 6.63663 101.46 8.01831C101.594 9.36669 102.092 10.6958 102.953 12.0056C103.444 12.7539 103.975 13.4487 104.545 14.09C105.614 15.2929 106.699 16.4657 107.799 17.6082C108.988 18.8426 110.098 20.2445 111.13 21.8136C112.241 23.5029 112.976 25.3607 113.334 27.3872C113.374 27.6107 113.393 27.8331 113.412 28.0555C113.432 28.278 113.451 28.5004 113.491 28.7238C113.52 28.8982 113.54 29.0716 113.548 29.2442C113.591 30.0871 113.578 30.8152 113.509 31.4285C113.471 31.7535 113.429 32.0983 113.383 32.4628C113.069 34.9111 112.006 37.1716 110.166 38.909C108.605 40.3809 106.804 41.0827 104.762 41.0144C103.661 40.9776 102.522 40.6714 101.504 40.26C101.138 40.1128 100.778 40.0064 100.423 39.9407C100.21 39.9011 99.9551 40.0563 99.7488 40.182C99.7014 40.2109 99.6566 40.2382 99.6154 40.2613C99.505 40.3244 99.3741 40.3577 99.2226 40.3612C98.755 40.3717 98.3136 40.3722 97.8985 40.3625C97.7395 40.3591 97.5882 40.2933 97.4769 40.1793C97.3657 40.0653 97.3034 39.9122 97.3035 39.7527C97.3087 36.3909 97.3083 33.1334 97.3022 29.9802C97.3013 29.6841 97.4077 29.4098 97.6214 29.1575C97.6484 29.1262 97.6865 29.1065 97.7278 29.1023C98.2138 29.0506 98.7116 29.0401 99.2213 29.0708C99.5689 29.0909 99.7712 29.2841 99.8282 29.6503L99.8763 29.9592L99.8763 29.9592C100.234 32.2564 100.546 34.2591 101.701 36.1715C102.68 37.7919 104.595 38.5555 106.399 37.7157C107.974 36.981 108.776 35.036 108.925 33.3998C108.988 32.7033 108.991 32.0102 108.935 31.3207C108.764 29.2088 107.824 27.5397 106.554 25.8812C105.208 24.1269 103.642 22.469 102.136 20.8748L102.136 20.8748L102.136 20.8746L101.792 20.5099C101.311 20 100.817 19.4424 100.31 18.8369C97.4659 15.4445 96.4794 11.5711 97.3508 7.21663C97.9182 4.38055 99.995 1.22249 103.057 0.60612C104.405 0.334515 105.708 0.488717 106.966 1.06873ZM13.4501 17.4585L7.82541 17.465C7.76849 17.465 7.74003 17.4366 7.74003 17.3796C7.75316 13.5 7.74835 9.51184 7.72558 5.41498C7.7196 4.42404 8.2146 3.95388 8.83595 3.36369L8.83613 3.36352C8.89786 3.30489 8.96084 3.24507 9.02469 3.18344C9.17707 3.03625 9.26026 2.8619 9.27427 2.66038C9.3128 2.09615 9.30536 1.53848 9.25194 0.987385C9.24608 0.928381 9.21865 0.873658 9.17496 0.833833C9.13127 0.794008 9.07444 0.77192 9.0155 0.771853C6.17645 0.775358 3.43591 0.77492 0.793895 0.770539C0.595985 0.770539 0.418216 0.808652 0.260588 0.884876C0.224875 0.902365 0.194549 0.929184 0.172814 0.962496C0.15108 0.995808 0.138744 1.03438 0.137113 1.07412C0.12135 1.50343 0.110842 1.94545 0.105588 2.40017C0.100333 2.82685 0.269345 3.16285 0.612624 3.40817C1.1328 3.7801 1.5492 4.26373 1.70682 4.88404C1.75937 5.08818 1.78564 5.41498 1.78564 5.86445C1.78389 15.8192 1.78389 25.7744 1.78564 35.73C1.78564 36.2075 1.60787 36.6828 1.25233 37.156C1.12725 37.3228 0.94804 37.4519 0.7688 37.581L0.768776 37.581C0.445438 37.8139 0.122012 38.0468 0.116096 38.5017C0.109091 39.0037 0.110841 39.4918 0.12135 39.9658C0.123754 40.0736 0.168131 40.1762 0.244976 40.2516C0.321822 40.327 0.425029 40.3692 0.532496 40.3692L8.7738 40.3666C8.84249 40.3666 8.91049 40.3529 8.97381 40.3264C9.03714 40.2998 9.09452 40.261 9.1426 40.212C9.19067 40.163 9.22848 40.105 9.2538 40.0413C9.27911 39.9776 9.29143 39.9094 9.29003 39.8409C9.2804 39.4028 9.27996 38.9556 9.28872 38.4991C9.29529 38.1758 9.12058 37.9327 8.87626 37.7447C8.49796 37.453 8.11045 37.1205 7.89765 36.6842C7.79344 36.4686 7.74134 36.2982 7.74134 36.1729C7.74922 31.1439 7.74835 26.1183 7.73871 21.0962C7.73871 21.0882 7.7419 21.0805 7.74756 21.0749C7.75323 21.0692 7.76091 21.066 7.76892 21.066C9.52647 21.0599 11.2166 21.0594 12.8393 21.0647C13.0083 21.0656 13.1935 21.0752 13.3949 21.0936C13.4427 21.0978 13.4872 21.1198 13.5197 21.1553C13.5522 21.1908 13.5705 21.2372 13.5709 21.2855C13.5779 26.283 13.5788 31.0847 13.5736 35.6906C13.5736 36.3385 13.2163 37.0811 12.6541 37.4793C12.197 37.8026 11.9264 38.1548 11.9014 38.7554C11.8848 39.1444 11.8878 39.5321 11.9106 39.9184C11.9176 40.0385 11.9704 40.1514 12.058 40.2339C12.1457 40.3165 12.2616 40.3625 12.3822 40.3627H20.5341C20.6076 40.3627 20.6803 40.3482 20.7481 40.32C20.8159 40.2919 20.8775 40.2506 20.9294 40.1986C20.9812 40.1466 21.0223 40.0849 21.0503 40.0169C21.0783 39.949 21.0926 39.8763 21.0924 39.8028C21.0915 39.4795 21.0942 39.136 21.1003 38.7724C21.1055 38.394 20.9965 38.0352 20.6905 37.7947C20.3253 37.5082 19.6317 36.8957 19.5766 36.4082L19.5673 36.3259L19.5555 36.2217C19.5086 35.8092 19.4611 35.3921 19.4623 34.973C19.4658 25.1243 19.4649 15.4556 19.4597 5.96695C19.4597 5.78475 19.4756 5.60519 19.4915 5.42547C19.503 5.29538 19.5146 5.1652 19.5201 5.03386C19.5437 4.50686 19.8445 4.00483 20.2583 3.71439C20.5644 3.50017 20.8139 3.22944 21.0018 2.91271C21.0806 2.77866 21.1209 2.60212 21.1226 2.38308C21.1261 2.00985 21.1266 1.63573 21.1239 1.26074C21.1229 1.13107 21.0707 1.00706 20.9787 0.915733C20.8866 0.824407 20.7623 0.773164 20.6327 0.773168L12.4518 0.774481C12.077 0.774481 11.8913 0.961539 11.8948 1.33565C11.8975 1.70977 11.8953 2.09352 11.8883 2.48691C11.8776 3.03214 12.232 3.31212 12.5956 3.59934C12.814 3.7718 13.0356 3.94688 13.1834 4.18356C13.4462 4.60148 13.5775 5.10658 13.5775 5.69885C13.581 9.47767 13.5758 13.1465 13.5617 16.7054C13.5609 16.9148 13.5552 17.1356 13.5447 17.3678C13.5437 17.3922 13.5332 17.4153 13.5156 17.4322C13.498 17.4491 13.4745 17.4585 13.4501 17.4585ZM30.9477 3.82466C30.509 4.18081 30.2922 4.81689 30.2922 5.37675C30.2887 12.909 30.2887 23.0425 30.2922 35.7772C30.2931 36.1618 30.3872 36.5119 30.5746 36.8273C30.7041 37.0442 30.9376 37.2513 31.1761 37.4629C31.5548 37.7987 31.9463 38.146 31.9552 38.562C31.9631 38.9773 31.96 39.3948 31.946 39.8145C31.9406 39.9617 31.8784 40.1011 31.7725 40.2033C31.6667 40.3055 31.5255 40.3626 31.3785 40.3625L23.1582 40.3638C23.0456 40.3639 22.9373 40.3199 22.8568 40.2412C22.7763 40.1626 22.7298 40.0557 22.7274 39.9433C22.716 39.4474 22.7204 38.9721 22.7405 38.5174C22.7603 38.0703 23.0891 37.7935 23.4096 37.5237C23.4943 37.4524 23.5784 37.3816 23.6561 37.3083C24.146 36.847 24.3733 36.253 24.3733 35.5893C24.3777 25.4383 24.379 15.4621 24.3772 5.66062C24.3772 5.04031 24.217 4.49929 23.8965 4.03756C23.7679 3.85209 23.5771 3.70895 23.387 3.56639C23.0627 3.32308 22.7406 3.08147 22.734 2.63397C22.7278 2.22306 22.7278 1.75038 22.734 1.21593C22.7353 1.09939 22.7825 0.988084 22.8651 0.906159C22.9477 0.824235 23.0592 0.778294 23.1753 0.778299L31.4114 0.776985C31.7678 0.776985 31.9486 0.95528 31.9539 1.31187C31.9609 1.76834 31.9534 2.21999 31.9315 2.66683C31.9128 3.04042 31.2981 3.53992 30.9926 3.78814L30.9477 3.82466ZM61.2735 21.8087C61.2852 21.8062 61.2974 21.8065 61.309 21.8095L61.432 21.8412C61.9002 21.9613 62.3096 22.0663 62.7001 22.4062C63.3057 22.9358 63.6853 23.9491 63.8718 24.6785C64.8237 28.41 66.0624 33.3747 67.5879 39.5725C67.693 39.9983 68.0279 40.3689 68.4916 40.3663C70.1774 40.3593 71.9283 40.3597 73.7446 40.3676C73.8017 40.3678 73.8582 40.3566 73.911 40.3348C73.9637 40.313 74.0116 40.281 74.0519 40.2405C74.0922 40.2001 74.1241 40.152 74.1458 40.0992C74.1674 40.0463 74.1784 39.9897 74.178 39.9326L74.1688 38.0993C74.1689 38.0719 74.1633 38.0447 74.1525 38.0194C74.1416 37.9941 74.1258 37.9712 74.1058 37.9521C73.9841 37.8355 73.8492 37.73 73.7012 37.6353C72.6589 36.9672 72.4178 35.9198 72.1586 34.7932L72.1315 34.6757C71.4809 31.8633 70.8289 29.0491 70.1756 26.2332C70.0329 25.6181 69.7912 24.9383 69.4505 24.1935C68.6992 22.5508 67.2529 21.4718 65.695 20.6767C65.5173 20.5856 65.526 20.5194 65.7213 20.4782C65.7966 20.4616 65.8706 20.4419 65.9433 20.4191C66.8873 20.1151 67.8068 19.6498 68.7018 19.0234C72.1131 16.6368 72.9682 12.4891 72.3706 8.52806C72.2322 7.61337 71.9831 6.7692 71.6232 5.99556C69.8196 2.12651 65.5742 0.786006 61.5836 0.775493C59.0913 0.76936 56.6096 0.768921 54.1383 0.774178C53.8152 0.775054 53.6435 0.936703 53.6234 1.25912C53.598 1.66916 53.5936 2.0827 53.6102 2.49975C53.6234 2.8191 53.7547 3.1424 54.0109 3.33822C54.9199 4.03344 55.2404 4.5105 55.243 5.73141C55.2701 15.3909 55.285 25.0504 55.2877 34.7099C55.2877 35.282 55.2439 35.7985 55.1563 36.2594C55.0863 36.6273 54.9098 36.9563 54.6269 37.2463C54.5141 37.3621 54.3913 37.4615 54.2716 37.5584C53.9481 37.8203 53.6463 38.0645 53.6194 38.5671C53.5975 38.9859 53.5975 39.4441 53.6194 39.9418C53.6248 40.0549 53.6736 40.1615 53.7555 40.2396C53.8375 40.3177 53.9463 40.3612 54.0595 40.361H62.2666C62.4102 40.361 62.548 40.3045 62.6503 40.2037C62.7525 40.1029 62.811 39.9658 62.8131 39.8222C62.8183 39.442 62.8183 39.0424 62.8131 38.6236C62.8051 38.0516 62.4863 37.8192 62.1666 37.5862C62.064 37.5113 61.9612 37.4364 61.8686 37.3502C61.4312 36.9454 61.2053 36.35 61.2066 35.7508C61.211 31.0695 61.2123 26.4479 61.2105 21.8858C61.2105 21.8737 61.2133 21.8619 61.2186 21.8511C61.2239 21.8403 61.2316 21.8309 61.2411 21.8235C61.2506 21.8162 61.2617 21.8111 61.2735 21.8087ZM61.2801 3.88493C63.1809 3.8639 65.1814 4.51838 65.8881 6.40429C66.0939 6.95363 66.2371 7.54108 66.3177 8.16665C66.5637 10.074 66.5607 11.97 66.3085 13.8546C66.0011 16.1532 65.1144 18.0101 62.7211 18.6002C62.4655 18.6633 62.1995 18.6959 61.9332 18.7286C61.7165 18.7553 61.4996 18.7819 61.288 18.825C61.2789 18.8269 61.2694 18.8267 61.2602 18.8245C61.2511 18.8222 61.2426 18.8179 61.2353 18.8119C61.2323 18.8094 61.2296 18.8067 61.2271 18.8037C61.2235 18.7994 61.2205 18.7947 61.2181 18.7896C61.214 18.7809 61.2119 18.7714 61.2118 18.7619L61.2092 3.95721C61.2092 3.9099 61.2329 3.88581 61.2801 3.88493ZM86.1958 40.8039C83.7184 41.089 81.2607 40.5213 79.4335 38.8772C77.958 37.5507 77.038 35.89 76.6737 33.895C76.5389 33.1529 76.4706 32.4516 76.4688 31.791C76.4513 22.7649 76.4509 14.0486 76.4675 5.64197C76.4684 5.29151 76.4377 4.98574 76.3755 4.72465C76.245 4.17328 75.8422 3.82898 75.4279 3.47488L75.4277 3.4747L75.4275 3.47456L75.4274 3.47445L75.4273 3.47435L75.4272 3.47426L75.4271 3.47416C75.3499 3.40817 75.2723 3.34184 75.196 3.27375C74.9884 3.08889 74.8785 2.86854 74.8663 2.6127C74.8479 2.20705 74.847 1.75846 74.8636 1.26694C74.8741 0.938388 75.0436 0.774111 75.372 0.774111C78.0858 0.772358 80.7261 0.772797 83.2928 0.775425C83.4338 0.775425 83.5748 0.781996 83.7158 0.795139C83.7962 0.802594 83.8716 0.837702 83.929 0.894489C83.9865 0.951276 84.0226 1.02623 84.031 1.10661L84.0317 1.11251C84.1117 1.84939 84.2237 2.87954 83.5805 3.39203C82.8002 4.01366 82.4258 4.46049 82.4285 5.50135C82.446 14.3653 82.4495 23.3826 82.439 32.5532C82.4381 33.0324 82.5068 33.5949 82.6452 34.2407C82.802 34.9714 83.0826 35.5939 83.4872 36.1082C84.3502 37.2042 85.9514 37.4316 87.2387 36.9545C89.058 36.279 89.5913 34.008 89.6898 32.3088C89.7135 31.9145 89.7236 31.264 89.7201 30.3571C89.6868 21.3521 89.6842 12.9771 89.7122 5.23194C89.7139 4.69486 89.5265 4.24759 89.15 3.89012C89.0619 3.80648 88.9674 3.72601 88.8726 3.64523L88.8725 3.64515L88.8723 3.64501C88.4903 3.31969 88.1023 2.98923 88.1044 2.42608C88.1053 2.06511 88.1105 1.71027 88.1201 1.36157C88.128 1.11055 88.2121 0.779368 88.5063 0.778054C90.5888 0.771921 92.623 0.771044 94.6091 0.775425C94.8876 0.775425 95.0247 0.914732 95.0203 1.19335C95.0133 1.64018 95.0128 2.07606 95.019 2.50099C95.0242 2.88737 94.8233 3.22118 94.5211 3.4354C93.7934 3.94882 93.43 4.59542 93.4309 5.37519C93.4388 13.8142 93.4383 22.5043 93.4296 31.4453C93.4287 32.3232 93.307 33.3014 93.0644 34.38C92.2881 37.839 89.7949 40.3912 86.1958 40.8039ZM0.549446 44.1414H133.548C133.627 44.1414 133.691 44.2055 133.691 44.2847V45.4385C133.691 45.5177 133.627 45.5818 133.548 45.5818H0.549446C0.47037 45.5818 0.406267 45.5177 0.406267 45.4385V44.2847C0.406267 44.2055 0.47037 44.1414 0.549446 44.1414ZM8.06835 59.4426C8.06869 59.4226 8.07687 59.4036 8.09112 59.3896C8.10537 59.3756 8.12455 59.3677 8.14454 59.3677L11.9263 59.3769C11.9318 59.3769 11.9373 59.378 11.9424 59.3802C11.9475 59.3824 11.9521 59.3856 11.956 59.3896C11.9599 59.3937 11.963 59.3984 11.9651 59.4037C11.9672 59.409 11.9683 59.4146 11.9683 59.4203C11.9613 59.9889 11.9604 60.5698 11.9657 61.1629C11.9674 61.4188 11.9372 61.6847 11.8751 61.9607C11.8155 62.2235 11.7485 62.4921 11.6741 62.7663C11.5988 63.0423 11.4884 63.334 11.3431 63.6416C10.6337 65.1463 9.28339 65.8968 7.69529 66.1096C5.87601 66.3541 3.72833 66.3475 2.27158 65.1595C1.64983 64.6522 1.19884 63.9189 0.918614 62.9595C0.688302 62.1727 0.538118 61.3408 0.468061 60.4638C0.397129 59.5833 0.397129 57.7206 0.468061 54.8757C0.47857 54.478 0.558697 53.9177 0.708444 53.1948C0.823162 52.6394 0.965465 52.1763 1.13535 51.8057C1.81578 50.3154 3.02732 49.4305 4.76999 49.151C5.59928 49.0187 6.45704 48.9907 7.34326 49.0669C7.38423 49.0701 7.42132 49.0618 7.45872 49.0535L7.45876 49.0535C7.51368 49.0413 7.56928 49.029 7.63881 49.0524C7.8665 49.1295 8.09987 49.186 8.33894 49.222C9.17174 49.3481 10.329 49.9435 10.8019 50.6518C11.3308 51.4421 11.643 52.1772 11.7384 52.8571C11.8365 53.558 11.8729 54.2927 11.8475 55.061C11.8468 55.0829 11.8376 55.1036 11.8219 55.1188C11.8062 55.134 11.7853 55.1425 11.7634 55.1425L7.98428 55.1491C7.97153 55.1493 7.95887 55.1468 7.94707 55.1419C7.93527 55.137 7.92456 55.1298 7.91561 55.1205C7.90665 55.1113 7.89962 55.1004 7.89494 55.0884C7.89026 55.0763 7.88804 55.0634 7.88839 55.0505C7.89977 54.5012 7.88489 53.9396 7.84373 53.3657C7.80169 52.7809 7.53767 52.0015 6.9505 51.7768C6.43646 51.5805 5.93118 51.6265 5.43465 51.9148C4.78423 52.2939 4.71248 53.6213 4.67048 54.3982C4.66676 54.4669 4.66328 54.5314 4.65965 54.5905C4.52829 56.7126 4.52522 58.6024 4.65045 60.2601C4.6846 60.7236 4.70562 61.145 4.7135 61.5244C4.71906 61.7678 4.77628 62.014 4.83195 62.2535C4.8421 62.2972 4.85221 62.3407 4.86194 62.3839C4.96702 62.853 5.31511 63.4116 5.82872 63.5009C5.90466 63.5145 5.97581 63.5335 6.04566 63.5521L6.04572 63.5521L6.04578 63.5521L6.04584 63.5522L6.0459 63.5522L6.04596 63.5522L6.04602 63.5522L6.04608 63.5522L6.04615 63.5522L6.04621 63.5522L6.04627 63.5522L6.04633 63.5522L6.04639 63.5523L6.04644 63.5523C6.19257 63.5912 6.33306 63.6286 6.49995 63.6126C7.56423 63.5074 7.74605 62.6684 7.93617 61.7911L7.95013 61.7267C8.08001 61.1339 8.07481 60.4656 8.07 59.848V59.848V59.8479V59.8478V59.8477V59.8477C8.06892 59.7097 8.06787 59.5742 8.06835 59.4426ZM18.5268 59.1936C18.7512 59.2761 18.974 59.358 19.1926 59.4416C20.2422 59.8424 21.2654 60.6205 21.159 61.8453C21.0329 63.2883 19.9217 63.91 18.5582 63.4539C17.9579 63.2528 17.6676 62.576 17.6413 61.9872C17.6273 61.6517 17.6308 61.3218 17.6518 60.9976C17.6579 60.9048 17.615 60.8583 17.5231 60.8583L13.8346 60.8596C13.811 60.8596 13.7883 60.8687 13.7714 60.8849C13.7545 60.9011 13.7446 60.9231 13.744 60.9464C13.6901 62.2553 13.6428 63.5275 14.5019 64.5999C15.445 65.7788 17.2131 66.1796 18.7697 66.2177C21.2011 66.2755 23.8939 65.9352 24.841 63.2739C25.221 62.205 25.3213 61.1212 25.1418 60.0225C24.9946 59.1249 24.506 58.1077 23.8177 57.5439C22.8279 56.7323 21.6212 56.2795 20.4402 55.8364L20.4389 55.8359C20.2568 55.7676 20.0754 55.6995 19.8954 55.6304C18.5017 55.0929 17.4351 54.2859 17.9553 52.588C18.0224 52.3705 18.187 52.2113 18.3497 52.054C18.4161 51.9898 18.4821 51.926 18.5411 51.8586C18.5744 51.82 18.616 51.8025 18.6659 51.806C18.7672 51.8133 18.8568 51.7769 18.9495 51.7392C19.0238 51.709 19.1001 51.678 19.1861 51.668C20.7164 51.4893 20.9948 52.7378 20.9778 53.9232C20.9778 53.9442 20.9878 53.9548 21.008 53.9548L24.8029 53.9574C24.8215 53.9575 24.8395 53.9506 24.8531 53.9381C24.8668 53.9257 24.8751 53.9086 24.8764 53.8904C25.0485 51.9545 24.1829 50.1895 22.3045 49.4904C22.2393 49.4663 22.173 49.4394 22.1057 49.4122C21.9044 49.3305 21.6949 49.2456 21.4861 49.2249C21.3416 49.2106 21.2041 49.1802 21.0663 49.1498C20.9123 49.1157 20.7579 49.0816 20.5929 49.0698C19.6025 48.9971 18.6838 49.0225 17.837 49.146C15.9573 49.4194 14.4323 50.4944 13.9725 52.3869C13.6949 53.5259 13.7146 54.6202 14.0316 55.6698C14.6663 57.7743 16.6525 58.5045 18.5268 59.1936ZM52.1178 63.6002C53.0031 63.6987 53.5732 63.1323 53.7636 62.3188C53.9856 61.3739 54.025 60.4316 54.029 59.4617C54.029 59.4039 54.0583 59.3749 54.117 59.3749L57.8843 59.3789C57.943 59.3789 57.9723 59.4082 57.9723 59.4669C57.9784 60.6182 57.8804 61.6472 57.6781 62.554C57.2617 64.4294 55.9113 65.6858 54.0802 66.0315C52.8901 66.2557 51.7364 66.2939 50.619 66.1458C47.5426 65.7397 46.6481 63.3675 46.4313 60.6616C46.3087 59.1344 46.2776 57.5512 46.3381 55.912C46.4011 54.1812 46.5693 52.5857 47.4585 51.1217C48.5619 49.3015 50.8252 48.9755 52.743 49.0334C54.7895 49.0951 56.6049 49.743 57.3746 51.7735C57.7897 52.8682 57.8042 53.892 57.8094 55.042C57.8096 55.0554 57.8071 55.0687 57.8021 55.0811C57.8004 55.0854 57.7983 55.0896 57.796 55.0936C57.7917 55.1012 57.7864 55.1082 57.7803 55.1144C57.7709 55.1239 57.7597 55.1315 57.7473 55.1366C57.7349 55.1418 57.7217 55.1445 57.7083 55.1445L53.9843 55.1497C53.9592 55.1497 53.9351 55.14 53.917 55.1227C53.8988 55.1053 53.8881 55.0815 53.8871 55.0564C53.8832 54.9637 53.8805 54.8584 53.8775 54.7438L53.8774 54.7432C53.8523 53.7801 53.8099 52.1576 52.9203 51.7972C52.4002 51.586 51.9404 51.5926 51.5411 51.8169C51.1479 52.0377 50.8948 52.4245 50.7819 52.9773C50.5993 53.8697 50.5388 54.762 50.5599 55.682C50.5896 57.0129 50.5896 58.3472 50.5599 59.6851C50.5402 60.5932 50.6203 61.5447 50.8291 62.4174C50.9062 62.7415 51.059 63.0197 51.2876 63.2519C51.4759 63.4429 51.7526 63.559 52.1178 63.6002ZM95.7034 55.9766L97.0222 55.9713C97.087 55.9713 97.1194 56.0037 97.1194 56.0686L97.1129 65.7912C97.1129 65.8274 97.1271 65.8622 97.1525 65.8878C97.1779 65.9134 97.2123 65.9278 97.2482 65.9278L100.924 65.9252C100.951 65.9252 100.978 65.9141 100.998 65.8944C101.018 65.8747 101.029 65.8479 101.029 65.8201C101.024 62.6651 101.024 59.6209 101.029 56.6876C101.029 56.4738 101.036 56.2661 101.052 56.0646C101.054 56.0446 101.062 56.0259 101.077 56.0122C101.092 55.9986 101.111 55.991 101.131 55.991L102.705 55.9963C102.732 55.9963 102.757 55.9856 102.776 55.9667C102.795 55.9477 102.806 55.9219 102.806 55.8951L102.801 53.4086C102.801 53.3986 102.799 53.3888 102.795 53.3796C102.791 53.3704 102.786 53.3621 102.779 53.3552C102.772 53.3482 102.763 53.3427 102.754 53.339C102.745 53.3353 102.736 53.3335 102.726 53.3337L101.132 53.3416C101.108 53.3416 101.084 53.3322 101.066 53.3152C101.048 53.2982 101.036 53.2748 101.034 53.2496C100.979 52.5833 100.945 51.7119 101.865 51.6659C102.135 51.6537 102.414 51.6559 102.702 51.6725C102.716 51.6734 102.73 51.6714 102.743 51.6667C102.757 51.6619 102.769 51.6545 102.779 51.6449C102.789 51.6353 102.797 51.6237 102.803 51.6108C102.805 51.6059 102.807 51.6008 102.808 51.5956C102.81 51.5872 102.811 51.5786 102.811 51.57L102.81 49.1992C102.81 49.1705 102.799 49.1429 102.78 49.1219C102.761 49.1009 102.734 49.0881 102.706 49.0861C101.593 48.9994 100.593 49.0051 99.7072 49.1032C98.9939 49.1834 98.0508 49.4686 97.6567 50.0941C97.0516 51.052 97.0842 52.1004 97.1179 53.1851L97.1208 53.2798C97.1209 53.2887 97.1194 53.2976 97.1161 53.3059C97.1129 53.3141 97.1081 53.3217 97.102 53.3281C97.0977 53.3325 97.0929 53.3363 97.0876 53.3394C97.0853 53.3407 97.083 53.3419 97.0805 53.3429C97.0751 53.3452 97.0694 53.3468 97.0636 53.3476C97.0608 53.348 97.058 53.3481 97.0551 53.3481L95.6049 53.3337C95.5857 53.3337 95.5674 53.3413 95.5538 53.3549C95.5403 53.3684 95.5327 53.3868 95.5327 53.406L95.5274 55.8018C95.5265 55.9192 95.5852 55.9775 95.7034 55.9766ZM93.7024 49.1583H89.9902C89.9358 49.1583 89.8917 49.2024 89.8917 49.2569V52.0036C89.8917 52.058 89.9358 52.1021 89.9902 52.1021H93.7024C93.7568 52.1021 93.8009 52.058 93.8009 52.0036V49.2569C93.8009 49.2024 93.7568 49.1583 93.7024 49.1583ZM104.453 49.1562H108.263C108.292 49.1562 108.315 49.1797 108.315 49.2087V52.0448C108.315 52.0738 108.292 52.0974 108.263 52.0974H104.453C104.424 52.0974 104.401 52.0738 104.401 52.0448V49.2087C104.401 49.1797 104.424 49.1562 104.453 49.1562ZM31.7773 59.122C31.8124 59.2543 31.8299 59.3871 31.8299 59.5203C31.8229 61.6703 31.8211 63.763 31.8246 65.7983C31.8246 65.8148 31.8214 65.8312 31.815 65.8465C31.8087 65.8618 31.7994 65.8758 31.7877 65.8875C31.7833 65.8919 31.7786 65.8959 31.7737 65.8996C31.7654 65.9057 31.7563 65.9109 31.7468 65.9148C31.7315 65.9212 31.7151 65.9244 31.6985 65.9244L27.8957 65.9297C27.8064 65.9297 27.7618 65.885 27.7618 65.7956L27.7644 49.4087C27.7644 49.3951 27.7696 49.382 27.779 49.3724C27.7884 49.3628 27.8011 49.3574 27.8143 49.3574L37.5557 49.3495C37.5792 49.3495 37.6017 49.3589 37.6184 49.3756C37.6351 49.3923 37.6447 49.4151 37.645 49.4389L37.6476 52.4222C37.6476 52.4497 37.6367 52.4761 37.6173 52.4956C37.5978 52.515 37.5714 52.526 37.5439 52.526H31.9993C31.8566 52.526 31.7883 52.5978 31.7944 52.7415C31.8399 53.7359 31.8408 54.7111 31.797 55.667C31.7961 55.6853 31.7989 55.7036 31.8053 55.7208C31.8116 55.738 31.8213 55.7537 31.8339 55.767C31.8464 55.7803 31.8615 55.7908 31.8782 55.798C31.8949 55.8052 31.9128 55.8089 31.931 55.8089L37.2339 55.8115C37.259 55.8115 37.283 55.8214 37.3008 55.8389C37.3185 55.8564 37.3284 55.8801 37.3284 55.9048L37.335 58.8592C37.335 58.8944 37.321 58.9282 37.2962 58.9531C37.2713 58.9779 37.2375 58.9919 37.2023 58.9919C35.5008 58.9937 33.9022 58.9928 32.4065 58.9893C32.2139 58.9893 32.0186 59.0103 31.8207 59.0524C31.8131 59.0541 31.806 59.0573 31.7997 59.0618C31.7934 59.0662 31.7881 59.0719 31.7841 59.0784C31.78 59.0849 31.7773 59.0921 31.7762 59.0996C31.775 59.1071 31.7754 59.1147 31.7773 59.122ZM129.714 54.1345L129.714 54.1347C129.738 54.259 129.762 54.3841 129.764 54.5151C129.765 54.6027 129.737 54.6132 129.681 54.5466C128.957 53.7016 128.49 53.1785 127.25 53.0471C126.907 53.0112 126.609 53.0182 126.354 53.0681C126.26 53.0878 126.146 53.0353 126.066 52.9945C126.052 52.9877 126.037 52.9856 126.022 52.9884C126.007 52.9913 125.993 52.9989 125.982 53.0103C125.853 53.1481 125.67 53.1826 125.483 53.2181C125.324 53.2482 125.161 53.2789 125.024 53.3743C124.478 53.7572 124.073 54.1918 123.811 54.678C123.314 55.5963 123.195 56.498 123.052 57.5882L123.046 57.6363C122.982 58.127 122.948 58.6062 122.942 59.0741L122.942 59.0834C122.929 60.1445 122.917 61.1417 123.174 62.1717C123.201 62.2824 123.202 62.3868 123.204 62.4907V62.4908C123.206 62.6163 123.208 62.741 123.255 62.8748C123.353 63.149 123.447 63.425 123.536 63.7028C123.932 64.9329 124.86 66.0145 126.214 66.1735C127.38 66.3115 128.537 66.2287 129.322 65.3022C129.428 65.1785 129.507 65.0421 129.587 64.9057L129.587 64.9054C129.655 64.7897 129.723 64.6741 129.806 64.5662C129.81 64.5608 129.815 64.5566 129.821 64.5541C129.828 64.5516 129.835 64.5509 129.841 64.5519C129.845 64.5525 129.848 64.5537 129.852 64.5553L129.855 64.5575L129.857 64.5589L129.859 64.5603C129.864 64.5646 129.868 64.5703 129.87 64.5767C129.903 64.6713 129.906 64.7673 129.879 64.8645C129.784 65.2071 129.752 65.5295 129.785 65.8318C129.788 65.8572 129.8 65.8806 129.818 65.8976C129.837 65.9146 129.861 65.9239 129.886 65.9238L133.581 65.9277C133.612 65.9277 133.642 65.9154 133.665 65.8935C133.687 65.8715 133.699 65.8418 133.699 65.8108L133.697 49.4921C133.697 49.3931 133.647 49.3441 133.548 49.3449C132.2 49.3651 130.942 49.3638 129.773 49.341C129.701 49.3392 129.666 49.3743 129.668 49.4461C129.695 50.8427 129.694 52.2717 129.665 53.7331C129.663 53.8701 129.688 54.0018 129.714 54.1345ZM126.933 57.8611C126.976 57.2079 127.18 56.2012 127.842 55.9003C128.926 55.4074 129.673 56.4351 129.652 57.3958C129.649 57.5439 129.66 57.692 129.686 57.84C129.822 58.6011 129.798 59.4176 129.775 60.2025V60.2027L129.77 60.4037L129.766 60.5501C129.764 60.5993 129.763 60.6483 129.762 60.6971C129.76 60.8412 129.736 60.9764 129.714 61.1106C129.684 61.2826 129.655 61.4529 129.669 61.6381C129.691 61.9229 129.622 62.272 129.463 62.6856C129.356 62.9633 129.173 63.1744 128.914 63.319C128.109 63.7672 127.441 63.1705 127.181 62.4188C127.013 61.9334 126.923 61.4524 126.912 60.9758C126.88 59.6134 126.887 58.5751 126.933 57.8611ZM82.0139 55.964C81.5875 56.0017 81.136 56.0074 80.6597 55.9811C80.6177 55.9788 80.5783 55.9604 80.5494 55.9299C80.5206 55.8993 80.5046 55.8589 80.5047 55.8168V53.3934C80.5047 53.3882 80.5052 53.383 80.5063 53.3779C80.5073 53.3736 80.5086 53.3695 80.5103 53.3655L80.5127 53.3602C80.5145 53.3568 80.5165 53.3536 80.5187 53.3505L80.5227 53.3456L80.5263 53.3418C80.5293 53.3388 80.5326 53.3361 80.5362 53.3337C80.5384 53.3322 80.5408 53.3308 80.5432 53.3295C80.5454 53.3283 80.5478 53.3272 80.5502 53.3263C80.5591 53.3227 80.5686 53.321 80.5782 53.3211L82.0166 53.3566C82.0283 53.357 82.0401 53.355 82.051 53.3507C82.062 53.3464 82.072 53.34 82.0805 53.3318C82.089 53.3236 82.0957 53.3137 82.1003 53.3029C82.1032 53.296 82.1052 53.2888 82.1063 53.2815C82.1066 53.2791 82.1069 53.2766 82.107 53.2742L82.1072 53.2686L82.1111 49.7609C82.1111 49.7407 82.1193 49.7213 82.1338 49.707C82.1484 49.6927 82.1681 49.6847 82.1886 49.6847H85.9638C85.9865 49.6847 86.0082 49.6937 86.0242 49.7097C86.0402 49.7257 86.0492 49.7475 86.0492 49.7701V53.2475C86.0492 53.2613 86.052 53.2749 86.0573 53.2876L86.0593 53.2921L86.0612 53.2957C86.0662 53.3052 86.0727 53.3139 86.0804 53.3214C86.0903 53.3311 86.1021 53.3387 86.115 53.3438C86.1279 53.349 86.1417 53.3515 86.1556 53.3514L87.7555 53.3303C87.7695 53.33 87.7835 53.3324 87.7966 53.3376C87.8096 53.3427 87.8215 53.3504 87.8315 53.3602C87.8416 53.37 87.8496 53.3817 87.855 53.3946C87.8604 53.4076 87.8632 53.4214 87.8632 53.4355L87.8724 55.8536C87.8726 55.872 87.8691 55.8903 87.8622 55.9074L87.8586 55.9154L87.8556 55.9214L87.8525 55.9269C87.8468 55.9363 87.8399 55.9451 87.8321 55.953C87.8192 55.9661 87.8038 55.9764 87.7868 55.9835C87.7698 55.9906 87.7516 55.9943 87.7332 55.9943L86.1792 55.9837C86.1752 55.9837 86.1713 55.9838 86.1673 55.9842C86.1633 55.9845 86.1594 55.985 86.1555 55.9857L86.1504 55.9868C86.1474 55.9874 86.1444 55.9882 86.1415 55.9891C86.1376 55.9902 86.1338 55.9916 86.1301 55.9931C86.1145 55.9994 86.1003 56.0088 86.0883 56.0206C86.0763 56.0325 86.0668 56.0466 86.0603 56.0621C86.0539 56.0777 86.0505 56.0944 86.0505 56.1112C86.0496 58.2219 86.0492 60.3504 86.0492 62.497C86.0492 62.6424 86.0886 62.7861 86.1674 62.9281C86.4774 63.484 87.2248 63.4827 87.7726 63.3736C87.785 63.3713 87.7977 63.3717 87.8098 63.3749C87.822 63.378 87.8333 63.3838 87.8429 63.3918C87.8526 63.3999 87.8604 63.4099 87.8657 63.4213C87.871 63.4327 87.8738 63.4451 87.8737 63.4577V65.7549C87.8737 65.8741 87.8142 65.9403 87.6951 65.9534C86.8203 66.0489 85.8614 66.0778 84.8184 66.0401C83.8306 66.0047 82.7692 65.8115 82.4014 64.7391C82.2123 64.1871 82.1164 63.5786 82.1138 62.9136C82.1033 60.7925 82.1041 58.507 82.1164 56.0573C82.1164 55.989 82.0822 55.9579 82.0139 55.964ZM63.5421 62.0709C63.5176 61.5242 63.5031 60.9552 63.4988 60.3638C63.4988 60.3033 63.529 60.2731 63.5894 60.2731L69.9536 60.2744C69.9956 60.2744 70.0175 60.2538 70.0193 60.2126C70.0622 59.2638 70.032 58.3044 69.9287 57.3345C69.662 54.8506 68.5717 53.3642 66.0077 53.0896C65.2195 53.0055 64.4344 53.0138 63.6524 53.1145C61.3471 53.4102 59.9942 54.9702 59.7196 57.2096C59.52 58.8393 59.5309 60.4676 59.7525 62.0946C59.8155 62.5616 59.9329 63.0303 60.1045 63.5008C60.5949 64.8501 61.5542 65.692 62.9825 66.0267C64.0772 66.2825 65.2309 66.3031 66.4438 66.0885C67.9946 65.8142 69.0359 64.9999 69.5674 63.6454C69.8039 63.0448 69.8958 62.3706 69.951 61.7213C69.9521 61.7077 69.9504 61.6941 69.946 61.6812C69.9416 61.6683 69.9346 61.6564 69.9255 61.6464C69.9163 61.6364 69.9052 61.6285 69.8929 61.623C69.8806 61.6176 69.8672 61.6148 69.8538 61.6149H66.3755C66.3203 61.6149 66.2914 61.6429 66.2888 61.699C66.2428 62.5335 66.1443 63.6033 65.188 63.8504C64.5601 64.0133 63.9782 63.673 63.7523 63.0724C63.627 62.7403 63.557 62.4065 63.5421 62.0709ZM66.2073 58.0428L63.5828 58.035C63.573 58.0348 63.5633 58.0327 63.5543 58.0288C63.5452 58.0248 63.5371 58.0192 63.5303 58.0121C63.5234 58.005 63.5181 57.9967 63.5145 57.9875C63.5108 57.9783 63.5091 57.9686 63.5093 57.9587L63.5119 57.2399C63.5138 56.7486 63.6423 56.2779 63.8691 55.9314C64.096 55.5849 64.4027 55.3909 64.7217 55.3921H65.0895C65.2475 55.3926 65.4039 55.4412 65.5496 55.5349C65.6953 55.6286 65.8274 55.7656 65.9386 55.9382C66.0497 56.1108 66.1376 56.3155 66.1972 56.5406C66.2569 56.7658 66.2871 57.007 66.2861 57.2504L66.2835 57.9692C66.2833 57.9791 66.2812 57.9888 66.2773 57.9978C66.2734 58.0068 66.2677 58.015 66.2607 58.0218C66.2536 58.0287 66.2452 58.034 66.2361 58.0377C66.2269 58.0413 66.2172 58.043 66.2073 58.0428ZM76.1723 54.6521L76.1726 54.6516C76.3669 54.3836 76.5598 54.1174 76.7987 53.8862C77.4966 53.2116 78.4275 52.9317 79.5913 53.0464C79.6833 53.0552 79.7292 53.106 79.7292 53.1989L79.7384 56.5002C79.7384 56.5181 79.7346 56.5358 79.7272 56.5521C79.7197 56.5684 79.7089 56.5828 79.6954 56.5945C79.6819 56.6061 79.6661 56.6146 79.649 56.6194C79.632 56.6243 79.6141 56.6253 79.5966 56.6224C78.4249 56.4358 76.8079 56.4805 76.2785 57.7172C76.127 58.0729 76.0539 58.6341 76.0591 59.4007C76.0732 61.1661 76.085 62.8812 76.0946 64.5459C76.0972 65.0216 76.0753 65.4636 76.0289 65.8719C76.0246 65.9104 76.0031 65.9297 75.9646 65.9297L72.2301 65.9218C72.2061 65.9218 72.183 65.9121 72.166 65.8949C72.149 65.8776 72.1395 65.8542 72.1395 65.8298L72.1382 53.4328C72.1382 53.3706 72.1692 53.3395 72.2314 53.3395L75.7938 53.3356C75.8284 53.3355 75.8617 53.3489 75.8867 53.373C75.9117 53.397 75.9264 53.4297 75.9278 53.4644C75.9453 53.9252 75.9361 54.4036 75.9002 54.8995C75.8932 54.9897 75.9168 54.9985 75.9711 54.9258C76.0396 54.8352 76.106 54.7436 76.1723 54.6521ZM114.594 60.8851C114.568 60.6932 114.579 60.514 114.626 60.3476C114.64 60.2967 114.674 60.2713 114.726 60.2713L121.091 60.2779C121.137 60.2779 121.161 60.2547 121.164 60.2083C121.245 58.88 121.155 57.5877 120.896 56.3313C120.514 54.4774 119.386 53.4138 117.512 53.1404C117.191 53.094 116.789 53.0545 116.307 53.0221C116.122 53.0101 115.948 53.0221 115.773 53.0341C115.624 53.0443 115.474 53.0546 115.32 53.0497C115.097 53.0436 114.872 53.0699 114.646 53.1286C114.518 53.1618 114.39 53.1894 114.262 53.2168C113.97 53.2794 113.68 53.3415 113.404 53.4703C111.739 54.247 110.981 55.8556 110.82 57.6127C110.721 58.6895 110.718 59.9756 110.812 61.4712C110.831 61.7787 110.871 62.0587 110.931 62.311C111.265 63.7277 111.72 64.8107 112.973 65.59C113.289 65.7862 113.641 65.9273 114.03 66.0132C115.117 66.2532 116.257 66.2905 117.451 66.1249C119.789 65.8029 121.112 64.009 121.041 61.7012C121.04 61.6797 121.031 61.6593 121.015 61.6444C121 61.6294 120.979 61.621 120.958 61.621L117.641 61.6092C117.602 61.6093 117.563 61.6226 117.533 61.647C117.502 61.6713 117.48 61.7053 117.472 61.7433C117.405 62.0333 117.358 62.3259 117.331 62.6212C117.243 63.5569 116.514 64.0773 115.575 63.8026C114.954 63.6213 114.738 62.7329 114.713 62.198C114.693 61.7757 114.653 61.338 114.594 60.8851ZM117.409 58.0306L114.692 58.0437C114.683 58.0437 114.674 58.0402 114.668 58.0338C114.661 58.0274 114.657 58.0188 114.657 58.0096L114.654 57.3511C114.653 57.094 114.682 56.8392 114.739 56.6013C114.797 56.3634 114.882 56.147 114.991 55.9646C115.099 55.7821 115.227 55.6372 115.369 55.538C115.511 55.4388 115.664 55.3873 115.818 55.3864L116.257 55.3838C116.411 55.3829 116.564 55.4327 116.707 55.5303C116.85 55.6279 116.98 55.7714 117.09 55.9526C117.2 56.1339 117.288 56.3493 117.348 56.5865C117.408 56.8238 117.44 57.0782 117.441 57.3354L117.444 57.9938C117.444 57.9986 117.443 58.0033 117.442 58.0078C117.44 58.0122 117.437 58.0163 117.434 58.0197C117.431 58.0232 117.427 58.0259 117.422 58.0278C117.418 58.0296 117.413 58.0306 117.409 58.0306ZM93.716 53.3373H89.9776C89.929 53.3373 89.8896 53.3767 89.8896 53.4253V65.842C89.8896 65.8907 89.929 65.9301 89.9776 65.9301H93.716C93.7646 65.9301 93.804 65.8907 93.804 65.842V53.4253C93.804 53.3767 93.7646 53.3373 93.716 53.3373ZM104.475 53.3394H108.243C108.283 53.3394 108.315 53.3718 108.315 53.4117V65.8547C108.315 65.8946 108.283 65.927 108.243 65.927H104.475C104.435 65.927 104.403 65.8946 104.403 65.8547V53.4117C104.403 53.3718 104.435 53.3394 104.475 53.3394Z" fill="#5866AA" fill-rule="evenodd"/>
</svg>