<?xml version="1.0" encoding="utf-8"?>
<svg xmlns="http://www.w3.org/2000/svg" fill="none" height="67" viewBox="0 0 173 67" width="173">
<path d="M117.883 37.7189L119.607 38.2364C119.492 38.7251 119.32 39.1275 119.061 39.4437C118.803 39.76 118.515 40.0187 118.141 40.1624C117.768 40.3349 117.308 40.4212 116.733 40.4212C116.043 40.4212 115.497 40.3349 115.037 40.1337C114.605 39.9324 114.232 39.5875 113.915 39.07C113.599 38.5813 113.427 37.9201 113.427 37.144C113.427 36.1091 113.714 35.3041 114.26 34.7292C114.807 34.1542 115.612 33.8955 116.618 33.8955C117.423 33.8955 118.026 34.068 118.486 34.3842C118.946 34.7004 119.291 35.1891 119.492 35.8791L117.768 36.2528C117.71 36.0516 117.653 35.9078 117.566 35.8216C117.451 35.6778 117.336 35.5629 117.164 35.4766C116.991 35.3904 116.819 35.3616 116.646 35.3616C116.215 35.3616 115.87 35.5341 115.64 35.9078C115.468 36.1665 115.382 36.5978 115.382 37.144C115.382 37.8339 115.497 38.3226 115.698 38.5813C115.899 38.8401 116.215 38.9838 116.589 38.9838C116.963 38.9838 117.25 38.8688 117.423 38.6676C117.653 38.4088 117.796 38.1214 117.883 37.7189Z" fill="#5866AA"/>
<path d="M120.298 37.1444C120.298 36.1095 120.585 35.3046 121.16 34.7296C121.735 34.1547 122.54 33.8672 123.575 33.8672C124.639 33.8672 125.444 34.1547 126.019 34.7009C126.594 35.2758 126.881 36.052 126.881 37.0869C126.881 37.8343 126.766 38.438 126.507 38.898C126.249 39.3579 125.904 39.7316 125.415 39.9904C124.955 40.2491 124.351 40.3928 123.661 40.3928C122.943 40.3928 122.368 40.2778 121.879 40.0479C121.419 39.8179 121.045 39.4729 120.729 38.9555C120.413 38.438 120.298 37.8918 120.298 37.1444ZM122.253 37.1444C122.253 37.7768 122.368 38.2368 122.598 38.5243C122.828 38.8117 123.144 38.9555 123.575 38.9555C124.006 38.9555 124.322 38.8117 124.552 38.553C124.782 38.2655 124.897 37.7768 124.897 37.0869C124.897 36.4832 124.782 36.052 124.524 35.7933C124.294 35.5058 123.949 35.3908 123.546 35.3908C123.144 35.3908 122.828 35.5345 122.598 35.822C122.368 36.052 122.253 36.5119 122.253 37.1444Z" fill="#5866AA"/>
<path d="M127.886 33.9814H130.444L131.422 37.8336L132.399 33.9814H134.957V40.3059H133.348V35.4763L132.111 40.3059H130.674L129.438 35.4763V40.3059H127.828V33.9814H127.886Z" fill="#5866AA"/>
<path d="M136.223 33.9814H139.471C140.19 33.9814 140.707 34.1539 141.052 34.4989C141.397 34.8439 141.57 35.3038 141.57 35.9363C141.57 36.5687 141.368 37.0862 140.995 37.4311C140.621 37.8048 140.017 37.9773 139.241 37.9773H138.177V40.3346H136.223V33.9814ZM138.177 36.6837H138.666C139.04 36.6837 139.299 36.6262 139.471 36.4825C139.615 36.3387 139.701 36.195 139.701 35.9938C139.701 35.7925 139.644 35.62 139.5 35.4763C139.356 35.3326 139.126 35.2751 138.752 35.2751H138.206V36.6837H138.177Z" fill="#5866AA"/>
<path d="M142.604 33.9814H144.559V38.7535H147.607V40.3059H142.604V33.9814Z" fill="#5866AA"/>
<path d="M148.586 33.9814H150.541V40.3059H148.586V33.9814Z" fill="#5866AA"/>
<path d="M155.83 39.2426H153.616L153.3 40.2775H151.316L153.702 33.9531H155.83L158.216 40.2775H156.175L155.83 39.2426ZM155.427 37.8915L154.737 35.6205L154.047 37.8915H155.427Z" fill="#5866AA"/>
<path d="M158.819 33.9814H160.63L163.016 37.4886V33.9814H164.856V40.3059H163.016L160.659 36.8274V40.3059H158.819V33.9814Z" fill="#5866AA"/>
<path d="M165.719 33.9814H171.669V35.5338H169.686V40.3059H167.731V35.5338H165.747V33.9814H165.719Z" fill="#5866AA"/>
<path d="M94.3679 43.6121L100.031 41.8298L98.1913 37.7477C96.8402 39.4437 95.4891 41.6286 94.3679 43.6121ZM92.4418 24.9551L81.3454 0.232422L0.105469 4.83199L22.6146 66.2362L65.9368 52.5813C63.1771 48.6141 62.1709 43.8996 65.3619 41.5998C68.9265 39.0125 74.3023 42.0023 77.7232 46.2281C81.0292 40.7086 90.3145 27.8586 92.4418 24.9551Z" fill="#5866AA"/>
<path d="M78.814 18.1012C82.2062 18.1012 84.966 15.514 84.966 12.2943C84.966 9.07456 82.2062 6.4873 78.814 6.4873C75.4219 6.4873 72.6621 9.07456 72.6621 12.2943C72.6621 15.4852 75.4219 18.1012 78.814 18.1012ZM73.7833 20.6022H83.8448V46.906H73.7833V20.6022Z" fill="#0B1029"/>
<path d="M68.8114 28.2779C68.8977 28.3066 68.9552 28.2779 68.9552 28.1916V21.5222C68.9552 21.436 68.8977 21.3498 68.8114 21.2923C68.8114 21.2923 67.4891 20.4298 63.4644 20.1999C63.2632 20.0849 59.7273 20.0561 58.7786 20.1999C44.1175 21.3785 43.5713 31.9863 43.5713 32.4462V35.0335C43.5713 35.3497 43.5713 46.1874 58.7786 47.1361C60.2735 47.2511 63.177 47.1361 63.4644 47.1361C66.9716 47.1361 69.3864 46.0724 69.3864 46.0724C69.4726 46.0437 69.5301 45.9575 69.5301 45.8712V39.633C69.5301 39.5468 69.4726 39.518 69.4151 39.5755C69.4151 39.5755 68.3227 40.438 63.5507 40.9267C62.1995 41.0704 61.5384 41.0129 61.0497 40.9267C54.2653 39.7768 53.9491 34.8322 53.9491 34.8322C53.9491 34.746 53.9203 34.6023 53.9203 34.5448V32.6474C53.9203 32.5612 53.9203 32.4175 53.9491 32.36C53.9491 32.36 54.409 27.0417 61.0497 26.4668H63.5507C66.4541 26.8405 68.8114 28.2779 68.8114 28.2779Z" fill="#0B1029"/>
<path d="M15.6289 46.8217C15.6289 46.9079 15.6864 46.9654 15.7726 46.9654H25.5755C25.6617 46.9654 25.7192 46.9079 25.7192 46.8217V39.1749C25.7192 39.0887 25.7767 39.0312 25.8629 39.0312C25.8629 39.0312 41.5302 40.1523 41.5302 29.6595C41.5302 21.3516 31.6987 20.4604 28.479 20.6041C28.4215 20.6041 15.7726 20.6041 15.7726 20.6041C15.6864 20.6041 15.6289 20.6616 15.6289 20.7479V46.8217ZM25.5467 33.1955V26.3249H27.9615C27.9615 26.3249 31.4399 26.4686 31.7274 28.8546C31.7849 29.0271 31.7849 30.2057 31.7274 30.2632C31.2674 33.0517 28.249 33.1955 28.249 33.1955H25.5467Z" fill="#0B1029"/>
<path d="M79.1028 59.5955C79.9077 59.5955 80.5401 59.5955 81.575 59.1356C85.1397 57.267 97.1848 27.8585 109.891 18.8031C109.977 18.7456 110.064 18.6594 110.121 18.5731C110.207 18.4581 110.207 18.3431 110.207 18.3431C110.207 18.3431 110.207 17.7395 108.339 17.7395C97.0411 17.4232 85.2834 41.1398 79.1028 50.5114C79.0165 50.6264 78.6141 50.5114 78.6141 50.5114C78.6141 50.5114 74.4745 45.6243 70.881 43.7558C70.7948 43.727 70.3923 43.5833 69.9611 43.612C69.6737 43.612 68.0063 43.957 67.2301 44.7619C66.3102 45.7393 66.339 46.2855 66.339 47.4642C66.339 47.5504 66.3965 47.9529 66.5115 48.1541C67.4026 49.7065 71.3985 55.2259 74.7044 58.2732C75.1931 58.6469 75.9693 59.5955 79.1028 59.5955Z" fill="#5866AA"/>
<path d="M113.226 9.91992H122.626C124.495 9.91992 125.989 10.1786 127.111 10.6674C128.26 11.1848 129.209 11.9035 129.928 12.8234C130.675 13.7721 131.221 14.8645 131.538 16.1006C131.883 17.3367 132.055 18.6591 132.055 20.0677C132.055 22.2525 131.796 23.9486 131.308 25.156C130.819 26.3634 130.129 27.3695 129.238 28.2032C128.347 29.0081 127.398 29.5543 126.392 29.8418C125.012 30.2155 123.747 30.388 122.626 30.388H113.226V9.91992ZM119.55 14.5482V25.7309H121.102C122.425 25.7309 123.373 25.5872 123.92 25.2997C124.466 25.0123 124.926 24.4948 125.242 23.7761C125.558 23.0574 125.731 21.8501 125.731 20.2115C125.731 18.0267 125.386 16.5605 124.667 15.7556C123.948 14.9507 122.798 14.5482 121.131 14.5482H119.55Z" fill="#5866AA"/>
<path d="M133.809 23.6321L139.846 23.2584C139.989 24.2358 140.248 24.9832 140.65 25.5007C141.312 26.3343 142.232 26.7368 143.439 26.7368C144.33 26.7368 145.049 26.5356 145.538 26.1043C146.026 25.6731 146.285 25.1844 146.285 24.6382C146.285 24.1208 146.055 23.6321 145.595 23.2009C145.135 22.7697 144.043 22.3959 142.347 22.0222C139.558 21.3898 137.603 20.5561 136.396 19.5212C135.188 18.4863 134.614 17.1639 134.614 15.5541C134.614 14.4904 134.93 13.513 135.533 12.5644C136.137 11.6157 137.057 10.897 138.293 10.3508C139.529 9.80463 141.197 9.5459 143.324 9.5459C145.94 9.5459 147.952 10.0346 149.303 11.012C150.683 11.9894 151.488 13.5418 151.747 15.6691L145.767 16.014C145.595 15.0941 145.279 14.4329 144.761 14.0017C144.244 13.5705 143.554 13.3693 142.663 13.3693C141.915 13.3693 141.369 13.513 140.995 13.8293C140.622 14.1455 140.449 14.5192 140.449 14.9791C140.449 15.2954 140.593 15.6116 140.909 15.8703C141.197 16.129 141.915 16.3878 143.036 16.6177C145.796 17.2214 147.78 17.8251 148.987 18.4288C150.195 19.0325 151.057 19.8087 151.603 20.6999C152.149 21.591 152.408 22.6259 152.408 23.7471C152.408 25.0694 152.034 26.2768 151.316 27.3692C150.597 28.4904 149.562 29.324 148.268 29.899C146.975 30.4739 145.308 30.7614 143.324 30.7614C139.846 30.7614 137.431 30.1002 136.08 28.7491C134.757 27.398 134.01 25.7019 133.809 23.6321Z" fill="#5866AA"/>
<path d="M154.021 23.6321L160.057 23.2584C160.201 24.2358 160.46 24.9832 160.862 25.5007C161.524 26.3343 162.443 26.7368 163.651 26.7368C164.542 26.7368 165.261 26.5356 165.749 26.1043C166.238 25.6731 166.497 25.1844 166.497 24.6382C166.497 24.1208 166.267 23.6321 165.807 23.2009C165.347 22.7697 164.255 22.3959 162.558 22.0222C159.77 21.3898 157.815 20.5561 156.608 19.5212C155.429 18.4863 154.825 17.1639 154.825 15.5541C154.825 14.4904 155.142 13.513 155.745 12.5644C156.349 11.6157 157.269 10.897 158.505 10.3508C159.741 9.80463 161.409 9.5459 163.536 9.5459C166.152 9.5459 168.164 10.0346 169.515 11.012C170.895 11.9894 171.7 13.5418 171.959 15.6691L165.979 16.014C165.807 15.0941 165.491 14.4329 164.973 14.0017C164.456 13.5705 163.766 13.3693 162.875 13.3693C162.127 13.3693 161.581 13.513 161.207 13.8293C160.834 14.1455 160.661 14.5192 160.661 14.9791C160.661 15.2954 160.805 15.6116 161.121 15.8703C161.409 16.129 162.127 16.3878 163.248 16.6177C166.008 17.2214 167.992 17.8251 169.199 18.4288C170.406 19.0325 171.269 19.8087 171.815 20.6999C172.361 21.591 172.62 22.6259 172.62 23.7471C172.62 25.0694 172.246 26.2768 171.528 27.3692C170.809 28.4904 169.774 29.324 168.48 29.899C167.187 30.4739 165.519 30.7614 163.536 30.7614C160.057 30.7614 157.643 30.1002 156.292 28.7491C154.94 27.398 154.193 25.7019 154.021 23.6321Z" fill="#5866AA"/>
</svg>